<svg xmlns="http://www.w3.org/2000/svg" viewBox="0 0 841.26 834.34"><defs><style>.cls-1{fill:none;stroke:#444;stroke-miterlimit:10;stroke-width:10px;fill-rule:evenodd;}</style></defs><title>Icon_Settings_NEW</title><g id="Ebene_2" data-name="Ebene 2"><g id="Ebene_1-2" data-name="Ebene 1"><path class="cls-1" d="M237.08,33.81c47.47-21.36,54.5-12.43,77.14,20.76,59,55.32,115.48,43.17,161.08-24.13,27-39.89,53.45-22.52,84.89-16.31,35.91,7.09,41.27,28.1,41.37,59.87.14,74.44,54.22,123.55,126.08,107,49.94-11.45,56.67,20.46,75.69,48.36,22.94,33.68,6.19,52.48-16.92,75.2-46.82,46-39.85,121,13.7,158.78,25.49,18,46.46,32.79,30.69,71.24C816.61,569,811.16,599.56,760.48,597c-70.07-3.47-114.63,53.7-103.92,124.24,4.39,29.18,8.25,53-28.41,67-32.2,12.33-56,33.29-90.85-2.37C480.48,727.82,415,736.6,366.63,805.18c-18.43,26.24-35.82,29.35-61.9,17.71-26.33-11.78-61.45-6.64-61.75-54.84-.59-91.85-44.88-128.54-135.77-114.49-35.69,5.57-47.43-11.41-59-36.81-11.86-25.95-31-47-.27-78.26,62.67-64,57.37-129.66-14.34-164.54C-11,359.55,8.33,328.08,14.5,298.85c9.94-47.31,23.11-63,57.91-56C147.84,258,191.34,203.27,178.16,128.78,162,72.89,169.29,64.18,237.08,33.81ZM316,546.56A167,167,0,0,0,551.4,524c58.83-71.09,49.66-177.45-20.24-236.56-71.29-60.24-180.22-49.25-239.52,24.13C233.17,383.86,243.92,487.1,316,546.56Z"/></g></g></svg>