<svg xmlns="http://www.w3.org/2000/svg" xmlns:xlink="http://www.w3.org/1999/xlink" version="1.1" width="1000" height="1000" viewBox="0 0 1000 1000" xml:space="preserve">
<desc>Created with Fabric.js 3.5.0</desc>
<defs>
</defs>
<rect x="0" y="0" width="100%" height="100%" fill="#ffffff"/>
<g transform="matrix(7.6337 0 0 7.6337 500.0074 500.0074)" id="Layer_1">
<circle style="stroke: none; stroke-width: 1; stroke-dasharray: none; stroke-linecap: butt; stroke-dashoffset: 0; stroke-linejoin: miter; stroke-miterlimit: 4; is-custom-font: none; font-file-url: none; fill: rgb(255,0,0); fill-rule: nonzero; opacity: 1;" cx="0" cy="0" r="65"/>
</g>
<g transform="matrix(7.6337 0 0 7.6337 500.0086 500.0085)" id="Layer_1">
<path style="stroke: rgb(255,255,255); stroke-width: 8; stroke-dasharray: none; stroke-linecap: butt; stroke-dashoffset: 0; stroke-linejoin: round; stroke-miterlimit: 10; is-custom-font: none; font-file-url: none; fill: none; fill-rule: nonzero; opacity: 1;" transform=" translate(-682.79, -384.26)" d="M 662.83 414.26 h 38.73 c 1.78 0 3.51 -0.56 4.96 -1.59 l 4.77 -3.41 V 381.3 c 0 -2.55 -1.14 -4.97 -3.12 -6.6 l -24.88 -20.44 l -25.62 19.44 c -2.13 1.61 -3.38 4.13 -3.38 6.8 v 25.23 c 0 2.26 0.9 4.43 2.5 6.04 l 0 0 C 658.39 413.36 660.56 414.26 662.83 414.26 z" stroke-linecap="round"/>
</g>
</svg>